<mxfile host="app.diagrams.net" modified="2023-10-22T16:53:50.266Z" agent="Mozilla/5.0 (Windows NT 10.0; Win64; x64) AppleWebKit/537.36 (KHTML, like Gecko) Chrome/118.0.0.0 Safari/537.36 Edg/118.0.2088.61" etag="4Js80Vz_carBiGkRf0M7" version="22.0.6" type="github">
  <diagram name="Page-1" id="6vcRelimUlJEHFt42jkF">
    <mxGraphModel dx="1026" dy="566" grid="1" gridSize="10" guides="1" tooltips="1" connect="1" arrows="1" fold="1" page="1" pageScale="1" pageWidth="850" pageHeight="1100" math="0" shadow="0">
      <root>
        <mxCell id="0" />
        <mxCell id="1" parent="0" />
        <mxCell id="WmmvkXu4qsiy9RFQYmCz-30" value="" style="ellipse;shape=cloud;whiteSpace=wrap;html=1;shadow=1;" vertex="1" parent="1">
          <mxGeometry x="380.55" y="131.11" width="240" height="130" as="geometry" />
        </mxCell>
        <mxCell id="WmmvkXu4qsiy9RFQYmCz-1" value="&lt;font style=&quot;font-size: 16px;&quot;&gt;ESP32Cam&lt;/font&gt;" style="rounded=0;whiteSpace=wrap;html=1;fillColor=#ffe6cc;strokeColor=#d79b00;shadow=1;glass=0;" vertex="1" parent="1">
          <mxGeometry x="190" y="360" width="120" height="60" as="geometry" />
        </mxCell>
        <mxCell id="WmmvkXu4qsiy9RFQYmCz-20" style="edgeStyle=orthogonalEdgeStyle;rounded=0;orthogonalLoop=1;jettySize=auto;html=1;exitX=0.5;exitY=0;exitDx=0;exitDy=0;exitPerimeter=0;entryX=0.5;entryY=1;entryDx=0;entryDy=0;" edge="1" parent="1" source="WmmvkXu4qsiy9RFQYmCz-4" target="WmmvkXu4qsiy9RFQYmCz-5">
          <mxGeometry relative="1" as="geometry" />
        </mxCell>
        <mxCell id="WmmvkXu4qsiy9RFQYmCz-4" value="" style="sketch=0;aspect=fixed;pointerEvents=1;shadow=1;dashed=0;html=1;strokeColor=none;labelPosition=center;verticalLabelPosition=bottom;verticalAlign=top;align=center;fillColor=#00188D;shape=mxgraph.azure.computer" vertex="1" parent="1">
          <mxGeometry x="445" y="340" width="111.11" height="100" as="geometry" />
        </mxCell>
        <mxCell id="WmmvkXu4qsiy9RFQYmCz-5" value="" style="shape=image;html=1;verticalAlign=top;verticalLabelPosition=bottom;labelBackgroundColor=#ffffff;imageAspect=0;aspect=fixed;image=https://cdn3.iconfinder.com/data/icons/brands-applications/512/Excel_D-128.png" vertex="1" parent="1">
          <mxGeometry x="450" y="160" width="101.11" height="101.11" as="geometry" />
        </mxCell>
        <mxCell id="WmmvkXu4qsiy9RFQYmCz-17" style="edgeStyle=orthogonalEdgeStyle;rounded=0;orthogonalLoop=1;jettySize=auto;html=1;exitX=0.5;exitY=1;exitDx=0;exitDy=0;entryX=0.5;entryY=0;entryDx=0;entryDy=0;" edge="1" parent="1" source="WmmvkXu4qsiy9RFQYmCz-6" target="WmmvkXu4qsiy9RFQYmCz-9">
          <mxGeometry relative="1" as="geometry" />
        </mxCell>
        <mxCell id="WmmvkXu4qsiy9RFQYmCz-6" value="" style="shape=actor;whiteSpace=wrap;html=1;shadow=1;" vertex="1" parent="1">
          <mxGeometry x="150" y="80" width="40" height="60" as="geometry" />
        </mxCell>
        <mxCell id="WmmvkXu4qsiy9RFQYmCz-16" style="edgeStyle=orthogonalEdgeStyle;rounded=0;orthogonalLoop=1;jettySize=auto;html=1;exitX=1;exitY=0.75;exitDx=0;exitDy=0;entryX=1;entryY=0.5;entryDx=0;entryDy=0;" edge="1" parent="1" source="WmmvkXu4qsiy9RFQYmCz-7" target="WmmvkXu4qsiy9RFQYmCz-9">
          <mxGeometry relative="1" as="geometry" />
        </mxCell>
        <mxCell id="WmmvkXu4qsiy9RFQYmCz-7" value="" style="shape=actor;whiteSpace=wrap;html=1;shadow=1;" vertex="1" parent="1">
          <mxGeometry x="270" y="60" width="40" height="60" as="geometry" />
        </mxCell>
        <mxCell id="WmmvkXu4qsiy9RFQYmCz-18" style="edgeStyle=orthogonalEdgeStyle;rounded=0;orthogonalLoop=1;jettySize=auto;html=1;exitX=0.5;exitY=1;exitDx=0;exitDy=0;" edge="1" parent="1" source="WmmvkXu4qsiy9RFQYmCz-8" target="WmmvkXu4qsiy9RFQYmCz-9">
          <mxGeometry relative="1" as="geometry" />
        </mxCell>
        <mxCell id="WmmvkXu4qsiy9RFQYmCz-8" value="" style="shape=actor;whiteSpace=wrap;html=1;labelPadding=0;noLabel=0;shadow=1;" vertex="1" parent="1">
          <mxGeometry x="60" y="160" width="40" height="60" as="geometry" />
        </mxCell>
        <mxCell id="WmmvkXu4qsiy9RFQYmCz-10" style="edgeStyle=orthogonalEdgeStyle;rounded=0;orthogonalLoop=1;jettySize=auto;html=1;exitX=0.5;exitY=1;exitDx=0;exitDy=0;" edge="1" parent="1" source="WmmvkXu4qsiy9RFQYmCz-9" target="WmmvkXu4qsiy9RFQYmCz-1">
          <mxGeometry relative="1" as="geometry" />
        </mxCell>
        <mxCell id="WmmvkXu4qsiy9RFQYmCz-9" value="OV2640 Camera Sensor" style="rounded=1;whiteSpace=wrap;html=1;shadow=1;fillColor=#dae8fc;strokeColor=#6c8ebf;" vertex="1" parent="1">
          <mxGeometry x="190" y="220" width="120" height="60" as="geometry" />
        </mxCell>
        <mxCell id="WmmvkXu4qsiy9RFQYmCz-19" style="edgeStyle=orthogonalEdgeStyle;rounded=0;orthogonalLoop=1;jettySize=auto;html=1;exitX=1;exitY=0.5;exitDx=0;exitDy=0;entryX=0;entryY=0.5;entryDx=0;entryDy=0;entryPerimeter=0;" edge="1" parent="1" source="WmmvkXu4qsiy9RFQYmCz-1" target="WmmvkXu4qsiy9RFQYmCz-4">
          <mxGeometry relative="1" as="geometry" />
        </mxCell>
        <mxCell id="WmmvkXu4qsiy9RFQYmCz-21" value="&lt;font style=&quot;font-size: 14px;&quot;&gt;Computer&lt;/font&gt;" style="text;html=1;strokeColor=none;fillColor=none;align=center;verticalAlign=middle;whiteSpace=wrap;rounded=0;" vertex="1" parent="1">
          <mxGeometry x="470.55" y="440" width="60" height="30" as="geometry" />
        </mxCell>
        <mxCell id="WmmvkXu4qsiy9RFQYmCz-22" value="Student_1" style="text;html=1;strokeColor=none;fillColor=none;align=center;verticalAlign=middle;whiteSpace=wrap;rounded=0;" vertex="1" parent="1">
          <mxGeometry x="50" y="130" width="60" height="30" as="geometry" />
        </mxCell>
        <mxCell id="WmmvkXu4qsiy9RFQYmCz-23" value="Student_2" style="text;html=1;strokeColor=none;fillColor=none;align=center;verticalAlign=middle;whiteSpace=wrap;rounded=0;" vertex="1" parent="1">
          <mxGeometry x="140" y="50" width="60" height="30" as="geometry" />
        </mxCell>
        <mxCell id="WmmvkXu4qsiy9RFQYmCz-24" value="Student_3" style="text;html=1;strokeColor=none;fillColor=none;align=center;verticalAlign=middle;whiteSpace=wrap;rounded=0;" vertex="1" parent="1">
          <mxGeometry x="260" y="30" width="60" height="30" as="geometry" />
        </mxCell>
        <mxCell id="WmmvkXu4qsiy9RFQYmCz-25" value="Capturing Face Images" style="text;html=1;align=center;verticalAlign=middle;whiteSpace=wrap;rounded=1;glass=0;fontStyle=0" vertex="1" parent="1">
          <mxGeometry x="130" y="190" width="80" height="30" as="geometry" />
        </mxCell>
        <mxCell id="WmmvkXu4qsiy9RFQYmCz-26" value="Processing&amp;nbsp;&lt;br&gt;Images On Esp32" style="text;html=1;strokeColor=none;fillColor=none;align=center;verticalAlign=middle;whiteSpace=wrap;rounded=0;" vertex="1" parent="1">
          <mxGeometry x="260" y="310" width="60" height="30" as="geometry" />
        </mxCell>
        <mxCell id="WmmvkXu4qsiy9RFQYmCz-27" value="Sending Image Frames via Wifi" style="text;html=1;strokeColor=none;fillColor=none;align=center;verticalAlign=middle;whiteSpace=wrap;rounded=0;" vertex="1" parent="1">
          <mxGeometry x="335" y="400" width="90" height="30" as="geometry" />
        </mxCell>
        <mxCell id="WmmvkXu4qsiy9RFQYmCz-28" value="Recognizing Faces" style="text;html=1;strokeColor=none;fillColor=none;align=center;verticalAlign=middle;whiteSpace=wrap;rounded=0;" vertex="1" parent="1">
          <mxGeometry x="470.55" y="360" width="60" height="30" as="geometry" />
        </mxCell>
        <mxCell id="WmmvkXu4qsiy9RFQYmCz-29" value="&lt;div style=&quot;&quot;&gt;&lt;span style=&quot;background-color: initial;&quot;&gt;Storing Student Prn and Time Stamp&lt;/span&gt;&lt;/div&gt;" style="text;html=1;strokeColor=none;fillColor=none;align=left;verticalAlign=middle;whiteSpace=wrap;rounded=0;" vertex="1" parent="1">
          <mxGeometry x="510" y="280" width="70" height="30" as="geometry" />
        </mxCell>
        <mxCell id="WmmvkXu4qsiy9RFQYmCz-31" value="Excel/GoogleSheets" style="text;html=1;strokeColor=none;fillColor=none;align=center;verticalAlign=middle;whiteSpace=wrap;rounded=0;" vertex="1" parent="1">
          <mxGeometry x="480" y="111" width="60" height="30" as="geometry" />
        </mxCell>
      </root>
    </mxGraphModel>
  </diagram>
</mxfile>
